<svg width="4041" height="2635" viewBox="0 0 4041 2635" fill="none" xmlns="http://www.w3.org/2000/svg">
<g clip-path="url(#clip0_3519_775)">
<g filter="url(#filter0_d_3519_775)">
<path d="M2211.5 1516.5L2158.69 1463.69C2155.69 1460.69 2151.62 1459 2147.37 1459H1685.02C1680.84 1459 1676.83 1460.64 1673.84 1463.56L1499.66 1633.94C1496.67 1636.86 1492.66 1638.5 1488.48 1638.5H1271.17C1266.9 1638.5 1262.81 1640.21 1259.81 1643.24L1159.19 1744.76C1156.19 1747.79 1152.1 1749.5 1147.83 1749.5H1040H933.5M1040 1800H1147.83C1152.1 1800 1156.19 1798.3 1159.19 1795.27L1270.31 1683.23C1273.31 1680.2 1277.4 1678.5 1281.67 1678.5H2196.24C2200.56 1678.5 2204.7 1676.75 2207.71 1673.66L2411.79 1463.84C2414.8 1460.75 2418.94 1459 2423.26 1459H2826.87C2831.12 1459 2835.19 1460.69 2838.19 1463.69L2886.31 1511.81C2889.31 1514.81 2893.38 1516.5 2897.63 1516.5H3049.5M1040 1800V1800C1040 1803.31 1037.31 1806 1034 1806H933.5M1040 1800V1800C1040 1796.69 1037.31 1794 1034 1794H933.5M933.5 1848.5H1229.79C1234.08 1848.5 1238.19 1846.78 1241.2 1843.72L1350.8 1732.28C1353.81 1729.22 1357.92 1727.5 1362.21 1727.5H1807.87C1812.12 1727.5 1816.19 1729.19 1819.19 1732.19L1913.81 1826.81C1916.81 1829.81 1920.88 1831.5 1925.13 1831.5H2613.37C2617.62 1831.5 2621.69 1829.81 2624.69 1826.81L2719.31 1732.19C2722.31 1729.19 2726.38 1727.5 2730.63 1727.5H3637M933.5 1848.5V1872.75V1891M933.5 1848.5V1806M3637 1727.5V1715.5C3637 1706.66 3644.16 1699.5 3653 1699.5H3701.5C3710.34 1699.5 3717.5 1706.66 3717.5 1715.5V1752C3717.5 1760.84 3710.34 1768 3701.5 1768H3653C3644.16 1768 3637 1760.84 3637 1752V1727.5ZM3438 1883H2665.63C2661.38 1883 2657.31 1884.69 2654.31 1887.69L2522.19 2019.81C2519.19 2022.81 2515.12 2024.5 2510.87 2024.5H2014.13C2009.88 2024.5 2005.81 2022.81 2002.81 2019.81L1819.19 1836.19C1816.19 1833.19 1812.12 1831.5 1807.87 1831.5H1398.83C1394.18 1831.5 1389.75 1833.53 1386.71 1837.05L1339.79 1891.45C1336.75 1894.97 1332.32 1897 1327.67 1897H1040M933.5 1947H1660.87C1665.12 1947 1669.19 1945.31 1672.19 1942.31L1693.81 1920.69C1696.81 1917.69 1700.88 1916 1705.13 1916H1819.87C1824.12 1916 1828.19 1917.69 1831.19 1920.69L1918.5 2008M933.5 1947V1922V1903M933.5 1947V1972.25V1991M933.5 2046H1660.87C1665.12 2046 1669.19 2047.69 1672.19 2050.69L1786.81 2165.31C1789.81 2168.31 1793.88 2170 1798.13 2170H2069M933.5 2046V2021.75V2003M933.5 2046V2070.5V2089M933.5 2142.5H1493.87C1498.12 2142.5 1502.19 2144.19 1505.19 2147.19L1642.81 2284.81C1645.81 2287.81 1649.88 2289.5 1654.13 2289.5H2175M933.5 2142.5V2118.75V2101M933.5 2142.5V2184M933.5 2239.5V2251.68C933.5 2258.27 930.793 2264.57 926.014 2269.1L882.444 2310.41C877.985 2314.64 872.075 2317 865.93 2317H852M933.5 2239.5H1244.07C1248.2 2239.5 1252.16 2241.09 1255.14 2243.95L1425.86 2407.55C1428.84 2410.41 1432.8 2412 1436.93 2412H1826.5M933.5 2239.5V2196M852 2317V2435.87C852 2440.12 853.686 2444.19 856.686 2447.19L915.814 2506.31C918.814 2509.31 922.884 2511 927.127 2511H1219.75C1222.85 2511 1225.88 2510.1 1228.48 2508.41L1285.02 2471.59C1287.62 2469.9 1290.65 2469 1293.75 2469H1860.37C1864.62 2469 1868.69 2467.31 1871.69 2464.31L1918.5 2417.5M852 2317H803.5M803.5 2317V2479.49C803.5 2483.96 805.369 2488.22 808.653 2491.25L882.454 2559.31C885.379 2562.01 889.205 2563.52 893.184 2563.54L1992.5 2571.5M803.5 2317H755M755 2317V2516.37C755 2520.62 756.686 2524.69 759.686 2527.69L836.314 2604.31C839.314 2607.31 843.384 2609 847.627 2609H1426.21C1429.02 2609 1431.78 2609.74 1434.21 2611.14L1555.21 2681M755 2317H705M705 2317V2548.87C705 2553.12 706.686 2557.19 709.686 2560.19L814.5 2665M705 2317H656.5M656.5 2317V2564.87C656.5 2569.12 658.186 2573.19 661.186 2576.19L750 2665M656.5 2317H608M608 2317V2564.87C608 2569.12 606.314 2573.19 603.314 2576.19L498.5 2681M608 2317H558M558 2317V2516.37C558 2520.62 556.314 2524.69 553.314 2527.69L400 2681M558 2317H509.5M509.5 2317V2504.37C509.5 2508.62 507.814 2512.69 504.814 2515.69L364.5 2656M509.5 2317H461M461 2317V2504.37C461 2508.62 459.314 2512.69 456.314 2515.69L362.186 2609.81C359.186 2612.81 355.116 2614.5 350.873 2614.5H137.627C133.384 2614.5 129.314 2616.19 126.314 2619.19L64.5 2681M461 2317H398.5M398.5 2317V2504.37C398.5 2508.62 396.814 2512.69 393.814 2515.69L358.686 2550.81C355.686 2553.81 351.616 2555.5 347.373 2555.5H109.127C104.884 2555.5 100.814 2557.19 97.8137 2560.19L-60 2718M398.5 2317H367.25M367.25 2317H346.27C339.711 2317 333.438 2314.32 328.909 2309.57L290.139 2268.96C285.878 2264.49 283.5 2258.56 283.5 2252.38V2247.5M367.25 2317V2462.37C367.25 2466.62 365.564 2470.69 362.564 2473.69L317.936 2518.31C314.936 2521.31 310.866 2523 306.623 2523H71.1274C66.8839 2523 62.8143 2524.69 59.8137 2527.69L-7 2594.5M283.5 2247.5L183.526 2249.85C179.343 2249.95 175.364 2251.68 172.444 2254.67L75.7099 2353.92C72.6984 2357.01 68.5668 2358.75 64.2522 2358.75H-139M283.5 2247.5V2202.25M283.5 2202.25H123.627C119.384 2202.25 115.314 2203.94 112.314 2206.94L49.6863 2269.56C46.6857 2272.56 42.616 2274.25 38.3726 2274.25H-24M283.5 2202.25V2142.5M283.5 2142.5H71.1274C66.884 2142.5 62.8143 2144.19 59.8137 2147.19L-67.25 2274.25M283.5 2142.5V2095M283.5 2095H51.6274C47.3839 2095 43.3143 2096.69 40.3137 2099.69L-38.5 2178.5M283.5 2095V2046M283.5 2046H-84.5M283.5 2046V1997.5M283.5 1997.5H51.6274C47.3839 1997.5 43.3143 1995.81 40.3137 1992.81L-24 1928.5M283.5 1997.5V1947M283.5 1947H71.1274C66.884 1947 62.8143 1945.31 59.8137 1942.31L-34 1848.5L-67.25 1815.25M283.5 1947V1897M283.5 1897H71.1274C66.884 1897 62.8143 1895.31 59.8137 1892.31L-24 1808.5M283.5 1897V1848.5M283.5 1848.5V1799M283.5 1848.5H61.6274C57.3839 1848.5 53.3143 1846.81 50.3137 1843.81L-24 1769.5M283.5 1793H177M283.5 1793V1787M283.5 1793V1799M283.5 1749.5V1747.52C283.5 1741.7 285.61 1736.09 289.438 1731.71L328.829 1686.7C333.386 1681.49 339.97 1678.5 346.89 1678.5H367.25M283.5 1749.5H92.8122C88.3134 1749.5 84.0225 1747.61 80.9909 1744.28L31.4418 1689.96C28.8211 1687.08 27.3366 1683.36 27.2658 1679.47L25.5 1582.5V1509.56C25.5 1505.96 24.2845 1502.46 22.0502 1499.64L-55 1402.2M283.5 1749.5V1787M852 1678.5H865.32C871.826 1678.5 878.053 1681.14 882.575 1685.82L926.756 1731.52C931.082 1736 933.5 1741.98 933.5 1748.2V1749.5M852 1678.5V1547.63C852 1543.38 853.686 1539.31 856.686 1536.31L960.314 1432.69C963.314 1429.69 965 1425.62 965 1421.37V1173.13C965 1168.88 966.686 1164.81 969.686 1161.81L1231.81 899.686C1234.81 896.686 1236.5 892.616 1236.5 888.373V784.127C1236.5 779.884 1238.19 775.814 1241.19 772.814L1441.5 572.5M852 1678.5H803.5M803.5 1678.5V1480.13C803.5 1475.88 805.186 1471.81 808.186 1468.81L888.314 1388.69C891.314 1385.69 893 1381.62 893 1377.37V1155.63C893 1151.38 894.686 1147.31 897.686 1144.31L1117.06 924.936C1120.06 921.936 1121.75 917.866 1121.75 913.623V528.127C1121.75 523.884 1120.06 519.814 1117.06 516.814L1044.69 444.436C1041.69 441.436 1040 437.366 1040 433.123V-173M803.5 1678.5H756M756 1678.5V1390.63C756 1386.38 757.686 1382.31 760.686 1379.31L798.814 1341.19C801.814 1338.19 803.5 1334.12 803.5 1329.87V1173.13C803.5 1168.88 805.186 1164.81 808.186 1161.81L850.814 1119.19C853.814 1116.19 855.5 1112.12 855.5 1107.87V704M756 1678.5H705M705 1678.5V1173.13C705 1168.88 706.686 1164.81 709.686 1161.81L798.814 1072.69C801.814 1069.69 803.5 1065.62 803.5 1061.37V178.5M705 1678.5H656.5M656.5 1678.5V1117.63C656.5 1113.38 658.186 1109.31 661.186 1106.31L733.814 1033.69C736.814 1030.69 738.5 1026.62 738.5 1022.37V734M656.5 1678.5H608M608 1678.5V1057.13C608 1052.88 609.686 1048.81 612.686 1045.81L675.814 982.686C678.814 979.686 680.5 975.616 680.5 971.373V760.127C680.5 755.884 678.814 751.814 675.814 748.814L612.686 685.686C609.686 682.686 608 678.616 608 674.373V466M608 1678.5H558M558 1678.5V984.627C558 980.384 556.314 976.314 553.314 973.314L446.686 866.686C443.686 863.686 442 859.616 442 855.373V644.127C442 639.884 443.686 635.814 446.686 632.814L553.314 526.186C556.314 523.186 558 519.116 558 514.873V311.5M558 1678.5H509.5M509.5 1678.5V1074.63C509.5 1070.38 507.814 1066.31 504.814 1063.31L327.686 886.186C324.686 883.186 323 879.116 323 874.873V681M509.5 1678.5H461M461 1678.5V1074.63C461 1070.38 459.314 1066.31 456.314 1063.31L317.936 924.936C314.936 921.936 310.866 920.25 306.623 920.25H233.5C224.663 920.25 217.5 913.087 217.5 904.25V282.127C217.5 277.884 215.814 273.814 212.814 270.814L125.186 183.186C122.186 180.186 120.5 176.116 120.5 171.873V87.6274C120.5 83.384 122.186 79.3143 125.186 76.3137L156.5 45M461 1678.5H398.5M398.5 1678.5V1117.63C398.5 1113.38 396.814 1109.31 393.814 1106.31L317.936 1030.44C314.936 1027.44 310.866 1025.75 306.623 1025.75H189.738C184.021 1025.75 178.739 1022.7 175.881 1017.75L155.075 981.713C153.671 979.281 152.932 976.521 152.932 973.713V282.127C152.932 277.884 151.246 273.814 148.245 270.814L60.6178 183.186C57.6172 180.186 55.9315 176.116 55.9315 171.873V-80M398.5 1678.5H367.25M367.25 1678.5V1155.02C367.25 1151.14 365.841 1147.39 363.286 1144.47L301.083 1073.46C298.045 1069.99 293.658 1068 289.047 1068H126.129C120.997 1068 116.177 1065.54 113.168 1061.38L55.8453 982.199C53.8694 979.469 52.8057 976.186 52.8057 972.816V641.787C52.8057 638.979 52.0664 636.219 50.6621 633.787L-46.2099 466M350 1703H863.012M350 1703L310.5 1749.5M350 1703L360 1725.5M310.5 1749.5L308.5 2249.5M310.5 1749.5L332 1759.5M308.5 2249.5L348.25 2292.45M308.5 2249.5L332 2241M348.25 2292.45H865.25M348.25 2292.45L358.5 2270M865.25 2292.45L910.5 2250M865.25 2292.45L852.938 2270M910.5 2250V1749.5M910.5 2250L887 2239.5M910.5 1749.5L863.012 1703M910.5 1749.5L887 1760.5M863.012 1703L852 1725.5M360 1725.5L332 1759.5M360 1725.5H852M332 1759.5V2241M332 2241L358.5 2270M358.5 2270H852.938M852.938 2270L887 2239.5M887 2239.5V1760.5M887 1760.5L852 1725.5M2694.5 2923.5V2635.38C2694.5 2631.13 2692.81 2627.06 2689.81 2624.06L2512.94 2447.19C2509.94 2444.19 2505.87 2442.5 2501.62 2442.5H2097.88C2093.63 2442.5 2089.56 2440.81 2086.56 2437.81L2012.19 2363.44C2009.19 2360.44 2005.12 2358.75 2000.87 2358.75H1554.98C1550.53 2358.75 1546.28 2356.89 1543.25 2353.63L1396.25 2195.12C1393.22 2191.86 1388.97 2190 1384.52 2190H1040M3813 2513H2886.63C2882.38 2513 2878.31 2511.31 2875.31 2508.31L2596.69 2229.69C2593.69 2226.69 2589.62 2225 2585.37 2225H1730.97C1726.52 2225 1722.28 2223.15 1719.25 2219.9L1607.75 2100.1C1604.72 2096.85 1600.48 2095 1596.03 2095H1040M3954 2095H3321.13C3316.88 2095 3312.81 2096.69 3309.81 2099.69L3124.69 2284.81C3121.69 2287.81 3117.62 2289.5 3113.37 2289.5H2895.63C2891.38 2289.5 2887.31 2287.81 2884.31 2284.81L2699.19 2099.69C2696.19 2096.69 2692.12 2095 2687.87 2095H1844.13C1839.88 2095 1835.81 2093.31 1832.81 2090.31L1744.68 2002.18C1741.68 1999.18 1737.62 1997.5 1733.38 1997.5L1040 1997M933.5 1891H1034C1037.31 1891 1040 1893.69 1040 1897V1897M933.5 1891V1903M933.5 1903H1034C1037.31 1903 1040 1900.31 1040 1897V1897M933.5 2003H1034C1037.31 2003 1040 2000.31 1040 1997V1997M933.5 2003V1991M933.5 1991H1034C1037.31 1991 1040 1993.69 1040 1997V1997M933.5 2101V2095V2089M933.5 2101H1034C1037.31 2101 1040 2098.31 1040 2095V2095M933.5 2089H1034C1037.31 2089 1040 2091.69 1040 2095V2095M933.5 2184H1034C1037.31 2184 1040 2186.69 1040 2190V2190M933.5 2184V2189.75V2196M933.5 2196H1034C1037.31 2196 1040 2193.31 1040 2190V2190M933.5 1806V1794M933.5 1794V1760.5V1749.5M177 1793L77.9749 1796.69C73.5273 1796.86 69.2117 1795.17 66.0646 1792.02L-6.5 1719.45M177 1793V1793C177 1789.69 179.686 1787 183 1787H283.5M177 1793V1793C177 1796.31 179.686 1799 183 1799H283.5M2294 2158.5V2186.25C2294 2195.09 2286.84 2202.25 2278 2202.25H2143.5C2134.66 2202.25 2127.5 2195.09 2127.5 2186.25V2158.5C2127.5 2149.66 2134.66 2142.5 2143.5 2142.5H2278C2286.84 2142.5 2294 2149.66 2294 2158.5Z" stroke="url(#paint0_linear_3519_775)" stroke-width="14" stroke-linecap="round" stroke-linejoin="round" shape-rendering="crispEdges"/>
</g>
<path d="M1115.5 1207V1171.5H1033V1207M1115.5 1207H1134M1115.5 1207V1243.5M1115.5 1243.5H1134M1115.5 1243.5V1278M1115.5 1278H1134M1115.5 1278V1310.5M1115.5 1310.5H1134M1115.5 1310.5V1342.75M1115.5 1342.75V1375H1033V1342.75M1115.5 1342.75H1134M1033 1207H1013M1033 1207V1243.5M1033 1243.5H1013M1033 1243.5V1278M1033 1278H1013M1033 1278V1310.5M1033 1310.5H1013M1033 1310.5V1342.75M1033 1342.75H1013M956.5 1591.5V1674.5H1033V1591.5H956.5ZM1082.5 1591.5V1674.5H1159V1591.5H1082.5ZM1046 1192.5H1103.5V1350H1046V1192.5Z" stroke="url(#paint1_linear_3519_775)" stroke-width="5" stroke-linecap="round" stroke-linejoin="round"/>
<circle cx="3470" cy="1885" r="28" stroke="#F9F6C4" stroke-width="12"/>
<circle cx="739" cy="702" r="28" stroke="#F9F6C4" stroke-width="12"/>
<circle cx="323" cy="647" r="28" stroke="#F9F6C4" stroke-width="12"/>
<circle cx="236" cy="1205" r="28" stroke="#F9F6C4" stroke-width="12"/>
<circle cx="2023" cy="2570" r="28" stroke="#F9F6C4" stroke-width="12"/>
<circle cx="1844" cy="2410" r="10" fill="#E4E1B6" stroke="#F9F6C4" stroke-width="12"/>
<circle cx="1923" cy="2410" r="10" fill="#E4E1B6" stroke="#F9F6C4" stroke-width="12"/>
<circle cx="3829" cy="2512" r="10" fill="#E4E1B6" stroke="#F9F6C4" stroke-width="12"/>
<circle cx="3066" cy="1517" r="10" fill="#E4E1B6" stroke="#F9F6C4" stroke-width="12"/>
<circle cx="2224" cy="1526" r="10" fill="#E4E1B6" stroke="#F9F6C4" stroke-width="12"/>
<circle cx="1451" cy="564" r="10" fill="#E4E1B6" stroke="#F9F6C4" stroke-width="12"/>
<circle cx="855" cy="686" r="10" fill="#E4E1B6" stroke="#F9F6C4" stroke-width="12"/>
<circle cx="608" cy="449" r="10" fill="#E4E1B6" stroke="#F9F6C4" stroke-width="12"/>
<circle cx="803" cy="162" r="10" fill="#E4E1B6" stroke="#F9F6C4" stroke-width="12"/>
<circle cx="558" cy="295" r="10" fill="#E4E1B6" stroke="#F9F6C4" stroke-width="12"/>
<circle cx="1930" cy="2019" r="10" fill="#E4E1B6" stroke="#F9F6C4" stroke-width="12"/>
<circle cx="2084" cy="2170" r="10" fill="#E4E1B6" stroke="#F9F6C4" stroke-width="12"/>
</g>
<defs>
<filter id="filter0_d_3519_775" x="-150" y="-180" width="4115" height="3118.5" filterUnits="userSpaceOnUse" color-interpolation-filters="sRGB">
<feFlood flood-opacity="0" result="BackgroundImageFix"/>
<feColorMatrix in="SourceAlpha" type="matrix" values="0 0 0 0 0 0 0 0 0 0 0 0 0 0 0 0 0 0 127 0" result="hardAlpha"/>
<feOffset dy="4"/>
<feGaussianBlur stdDeviation="2"/>
<feComposite in2="hardAlpha" operator="out"/>
<feColorMatrix type="matrix" values="0 0 0 0 0 0 0 0 0 0 0 0 0 0 0 0 0 0 0.25 0"/>
<feBlend mode="normal" in2="BackgroundImageFix" result="effect1_dropShadow_3519_775"/>
<feBlend mode="normal" in="SourceGraphic" in2="effect1_dropShadow_3519_775" result="shape"/>
</filter>
<linearGradient id="paint0_linear_3519_775" x1="1816.5" y1="-80" x2="1816.5" y2="2681" gradientUnits="userSpaceOnUse">
<stop stop-color="#FFF2AA"/>
<stop offset="0.696969" stop-color="#D4FFF6"/>
<stop offset="1" stop-color="#FFF4BB"/>
</linearGradient>
<linearGradient id="paint1_linear_3519_775" x1="1057.75" y1="1171.5" x2="1057.75" y2="1674.5" gradientUnits="userSpaceOnUse">
<stop stop-color="#FFD700"/>
<stop offset="0.696969" stop-color="#D4FFF6"/>
<stop offset="1" stop-color="#FFF4BB"/>
</linearGradient>
<clipPath id="clip0_3519_775">
<rect width="4040" height="2634" fill="white" transform="translate(0.196289 0.867188)"/>
</clipPath>
</defs>
</svg>
