<svg width="1351" height="886" viewBox="0 0 1351 886" fill="none" xmlns="http://www.w3.org/2000/svg">
<path d="M1 868L187 651.5L240.5 635.5H435.5L467 626L487 584.5L512 576.5H572L613 547.5H670.5L695.5 565.5H716L728.5 547.5L733 525L725.5 510L768 264L749.5 252L774 145L902 59V28.5L932.5 12V0.5M222 880.5L236.5 848L332.5 798L364.5 740L386.5 725H579L590 718.5H772L776 644L832 602L815 592L817.5 525L782 502.5L787.5 423L793.5 417L814 411L817.5 382L809.5 379L803.5 373.5L814 270.5L809.5 264L817.5 211.5H830L838.5 206.5L910.5 163V134L919 125.5H949L955 131.5L959 190.5L980.5 203V221L949 241H923.5L882.5 264H824" stroke="#FFD700" stroke-width="2"/>
<path d="M99.5 885L169.5 791.5L217.5 764.5L252.5 714.5L288.5 697L1080 705L1109.5 687.5L1084.5 605L1042.5 583L1027 484.5L1061.5 463L1033 287L1042.5 277L1034.5 224.5L1019 215L1018 201L1025 195.5L1019 146.5L1037 134L1033 102L1025 95H966.5L956 102L961.5 182L990.5 200L993 227L979 241L982 287L964.5 302.5V339M541.5 883.5L578.5 749L612 730.5H1207L1226 713L1183 621L1171 613V605L1215.5 560.5L1200 530.5L1215.5 510L1242.5 497.5H1327L1350 470V450L1294 322.5L1277.5 311.5L1254.5 256.5L1200 218.5L1194.5 200L1226 182H1266L1309.5 210" stroke="#85FFA8"/>
</svg>
