<svg width="4040" height="2634" viewBox="0 0 4040 2634" fill="none" xmlns="http://www.w3.org/2000/svg">
<g clip-path="url(#clip0_3562_244)">
<path d="M2712.5 1227.5L2659.69 1174.69C2656.69 1171.69 2652.62 1170 2648.37 1170H2186.02C2181.84 1170 2177.83 1171.64 2174.84 1174.56L2000.66 1344.94C1997.67 1347.86 1993.66 1349.5 1989.48 1349.5H1772.17C1767.9 1349.5 1763.81 1351.21 1760.81 1354.24L1660.19 1455.76C1657.19 1458.79 1653.1 1460.5 1648.83 1460.5H1541H1434.5M1541 1511H1680.53C1684.8 1511 1688.89 1509.3 1691.89 1506.27L1803 1394.23C1806.01 1391.2 1810.1 1389.5 1814.36 1389.5H2697.24C2701.56 1389.5 2705.7 1387.75 2708.71 1384.66L2912.79 1174.84C2915.8 1171.75 2919.94 1170 2924.26 1170H3327.87C3332.12 1170 3336.19 1171.69 3339.19 1174.69L3387.31 1222.81C3390.31 1225.81 3394.38 1227.5 3398.63 1227.5H3550.5M1541 1511C1541 1507.69 1538.31 1505 1535 1505H1434.5M1541 1511C1541 1514.31 1538.31 1517 1535 1517H1434.5M1434.5 1559.5H1730.79C1735.08 1559.5 1739.19 1557.78 1742.2 1554.72L1830.16 1465.28C1833.17 1462.22 1837.28 1460.5 1841.57 1460.5H2331.91C2336.13 1460.5 2340.18 1462.17 2343.18 1465.14L2533.02 1653.36C2536.01 1656.33 2540.06 1658 2544.28 1658H2923.13C2927.24 1658 2931.19 1656.42 2934.17 1653.59L3155.37 1442.91C3158.34 1440.08 3162.29 1438.5 3166.4 1438.5H4138M1434.5 1559.5V1583.75V1602M1434.5 1559.5V1517M4138 1438.5V1426.5C4138 1417.66 4145.16 1410.5 4154 1410.5H4202.5C4211.34 1410.5 4218.5 1417.66 4218.5 1426.5V1463C4218.5 1471.84 4211.34 1479 4202.5 1479H4154C4145.16 1479 4138 1471.84 4138 1463V1438.5ZM3939 1594H3166.63C3162.38 1594 3158.31 1595.69 3155.31 1598.69L3023.19 1730.81C3020.19 1733.81 3016.12 1735.5 3011.87 1735.5H2515.03C2510.85 1735.5 2506.82 1733.86 2503.83 1730.93L2306.86 1537.94C2303.87 1535.01 2299.85 1533.37 2295.66 1533.37H1882.3C1877.78 1533.37 1873.47 1535.28 1870.43 1538.63L1812.46 1602.73C1809.43 1606.09 1805.12 1608 1800.59 1608H1541M1434.5 1658H2161.87C2166.12 1658 2170.19 1656.31 2173.19 1653.31L2194.81 1631.69C2197.81 1628.69 2201.88 1627 2206.13 1627H2285.87C2290.12 1627 2294.19 1628.69 2297.19 1631.69L2384.5 1719M1434.5 1658V1633V1614M1434.5 1658V1683.25V1702M1434.5 1757H2162.31C2166.29 1757 2170.13 1758.49 2173.08 1761.17L2287.92 1865.7C2290.87 1868.38 2294.71 1869.87 2298.69 1869.87H2570M1434.5 1757V1732.75V1714M1434.5 1757V1781.5V1800M1434.5 1853.5H1994.87C1999.12 1853.5 2003.19 1855.19 2006.19 1858.19L2143.81 1995.81C2146.81 1998.81 2150.88 2000.5 2155.13 2000.5H2676M1434.5 1853.5V1829.75V1812M1434.5 1853.5V1895M1434.5 1950.5V1962.68C1434.5 1969.27 1431.79 1975.57 1427.01 1980.1L1383.44 2021.41C1378.99 2025.64 1373.07 2028 1366.93 2028H1353M1434.5 1950.5H1745.07C1749.2 1950.5 1753.16 1952.09 1756.14 1954.95L1926.86 2118.55C1929.84 2121.41 1933.8 2123 1937.93 2123H2327.5M1434.5 1950.5V1907M1353 2028V2146.87C1353 2151.12 1354.69 2155.19 1357.69 2158.19L1416.81 2217.31C1419.81 2220.31 1423.88 2222 1428.13 2222H1720.75C1723.85 2222 1726.88 2221.1 1729.48 2219.41L1786.02 2182.59C1788.62 2180.9 1791.65 2180 1794.75 2180H2361.37C2365.62 2180 2369.69 2178.31 2372.69 2175.31L2419.5 2128.5M1353 2028H1304.5M1304.5 2028V2190.49C1304.5 2194.96 1306.37 2199.22 1309.65 2202.25L1383.45 2270.31C1386.38 2273.01 1390.2 2274.52 1394.18 2274.54L2493.5 2282.5M1304.5 2028H1256M1256 2028V2227.37C1256 2231.62 1257.69 2235.69 1260.69 2238.69L1337.31 2315.31C1340.31 2318.31 1344.38 2320 1348.63 2320H1927.21C1930.02 2320 1932.78 2320.74 1935.21 2322.14L2056.21 2392M1256 2028H1206M1206 2028V2259.87C1206 2264.12 1207.69 2268.19 1210.69 2271.19L1315.5 2376M1206 2028H1157.5M1157.5 2028V2275.87C1157.5 2280.12 1159.19 2284.19 1162.19 2287.19L1251 2376M1157.5 2028H1109M1109 2028V2275.87C1109 2280.12 1107.31 2284.19 1104.31 2287.19L999.5 2392M1109 2028H1059M1059 2028V2246.74C1059 2250.98 1057.31 2255.05 1054.31 2258.05L901 2411.37M1059 2028H1010.5M1010.5 2028V2215.37C1010.5 2219.62 1008.81 2223.69 1005.81 2226.69L865.5 2367M1010.5 2028H962M962 2028V2215.37C962 2219.62 960.314 2223.69 957.314 2226.69L863.186 2320.81C860.186 2323.81 856.116 2325.5 851.873 2325.5H638.627C634.384 2325.5 630.314 2327.19 627.314 2330.19L565.5 2392M962 2028H916.696M916.696 2028V2198.12C916.696 2202.43 914.952 2206.57 911.861 2209.58L841.882 2277.74C838.763 2280.78 834.54 2282.42 830.188 2282.27L602.627 2274.73C598.205 2274.58 593.92 2276.27 590.79 2279.4L441 2429M916.696 2028H868.25M868.25 2028H847.27C840.711 2028 834.438 2025.32 829.909 2020.57L791.139 1979.96C786.878 1975.49 784.5 1969.56 784.5 1963.38V1949.5M868.25 2028V2173.37C868.25 2177.62 866.564 2181.69 863.564 2184.69L818.936 2229.31C815.936 2232.31 811.866 2234 807.623 2234H572.127C567.884 2234 563.814 2235.69 560.814 2238.69L494 2305.5M784.5 1949.5L668.625 1951.86C664.204 1951.95 660.018 1953.86 657.059 1957.15L560.463 2064.45C557.429 2067.83 553.107 2069.75 548.572 2069.75H362M784.5 1949.5V1903.37M784.5 1903.37H625.237C620.637 1903.37 616.259 1905.35 613.221 1908.8L550.779 1979.82C547.741 1983.27 543.363 1985.25 538.763 1985.25H477M784.5 1903.37V1853.5M784.5 1853.5H572.127C567.884 1853.5 563.814 1855.19 560.814 1858.19L433.75 1985.25M784.5 1853.5V1806M784.5 1806H552.627C548.384 1806 544.314 1807.69 541.314 1810.69L462.5 1889.5M784.5 1806V1757M784.5 1757H416.5M784.5 1757V1708.5M784.5 1708.5H552.627C548.384 1708.5 544.314 1706.81 541.314 1703.81L477 1639.5M784.5 1708.5V1658M784.5 1658H572.127C567.884 1658 563.814 1656.31 560.814 1653.31L467 1559.5L433.75 1526.25M784.5 1658V1608M784.5 1608H572.127C567.884 1608 563.814 1606.31 560.814 1603.31L477 1519.5M784.5 1608V1559.5M784.5 1559.5V1510M784.5 1559.5H562.627C558.384 1559.5 554.314 1557.81 551.314 1554.81L477 1480.5M784.5 1504H678M784.5 1504V1498M784.5 1504V1510M784.5 1460.5V1458.52C784.5 1452.7 786.61 1447.09 790.438 1442.71L829.829 1397.7C834.386 1392.49 840.97 1389.5 847.89 1389.5H868.25M784.5 1460.5H593.812C589.313 1460.5 585.023 1458.61 581.991 1455.28L532.442 1400.96C529.821 1398.08 528.337 1394.36 528.266 1390.47L526.5 1293.5V1220.56C526.5 1216.96 525.284 1213.46 523.05 1210.64L446 1113.2M784.5 1460.5V1498M1353 1389.5H1366.32C1372.83 1389.5 1379.05 1392.14 1383.58 1396.82L1427.76 1442.52C1432.08 1447 1434.5 1452.98 1434.5 1459.2V1460.5M1353 1389.5V1258.63C1353 1254.38 1354.69 1250.31 1357.69 1247.31L1461.31 1143.69C1464.31 1140.69 1466 1136.62 1466 1132.37V884.127C1466 879.884 1467.69 875.814 1470.69 872.814L1732.81 610.686C1735.81 607.686 1737.5 603.616 1737.5 599.373V495.127C1737.5 490.884 1739.19 486.814 1742.19 483.814L1942.5 283.5M1353 1389.5H1304.5M1304.5 1389.5V1191.13C1304.5 1186.88 1306.19 1182.81 1309.19 1179.81L1389.31 1099.69C1392.31 1096.69 1394 1092.62 1394 1088.37V866.627C1394 862.384 1395.69 858.314 1398.69 855.314L1618.06 635.936C1621.06 632.936 1622.75 628.866 1622.75 624.623V239.127C1622.75 234.884 1621.06 230.814 1618.06 227.814L1545.69 155.436C1542.69 152.436 1541 148.366 1541 144.123V-462M1304.5 1389.5H1257M1257 1389.5V1101.63C1257 1097.38 1258.69 1093.31 1261.69 1090.31L1299.81 1052.19C1302.81 1049.19 1304.5 1045.12 1304.5 1040.87V884.127C1304.5 879.884 1306.19 875.814 1309.19 872.814L1351.81 830.186C1354.81 827.186 1356.5 823.116 1356.5 818.873V415M1257 1389.5H1206M1206 1389.5V884.127C1206 879.884 1207.69 875.814 1210.69 872.814L1299.81 783.686C1302.81 780.686 1304.5 776.616 1304.5 772.373V-110.5M1206 1389.5H1157.5M1157.5 1389.5V828.627C1157.5 824.384 1159.19 820.314 1162.19 817.314L1234.81 744.686C1237.81 741.686 1239.5 737.616 1239.5 733.373V445M1157.5 1389.5H1109M1109 1389.5V768.127C1109 763.884 1110.69 759.814 1113.69 756.814L1176.81 693.686C1179.81 690.686 1181.5 686.616 1181.5 682.373V471.127C1181.5 466.884 1179.81 462.814 1176.81 459.814L1113.69 396.686C1110.69 393.686 1109 389.616 1109 385.373V177M1109 1389.5H1059M1059 1389.5V695.627C1059 691.384 1057.31 687.314 1054.31 684.314L947.686 577.686C944.686 574.686 943 570.616 943 566.373V355.127C943 350.884 944.686 346.814 947.686 343.814L1054.31 237.186C1057.31 234.186 1059 230.116 1059 225.873V22.5M1059 1389.5H1010.5M1010.5 1389.5V746.627C1010.5 742.384 1008.81 738.314 1005.81 735.314L828.686 558.186C825.686 555.186 824 551.116 824 546.873V392M1010.5 1389.5H962M962 1389.5V785.627C962 781.384 960.314 777.314 957.314 774.314L818.936 635.936C815.936 632.936 811.866 631.25 807.623 631.25H734.5C725.663 631.25 718.5 624.087 718.5 615.25V-6.87258C718.5 -11.116 716.814 -15.1857 713.814 -18.1863L626.186 -105.814C623.186 -108.814 621.5 -112.884 621.5 -117.127V-201.373C621.5 -205.616 623.186 -209.686 626.186 -212.686L657.5 -244M962 1389.5H916.696M916.696 1389.5V828.519C916.696 824.34 915.061 820.326 912.14 817.337L823.08 726.186C820.069 723.104 815.943 721.367 811.635 721.367H672.269C666.769 721.367 661.654 718.542 658.726 713.887L639.205 682.855C637.567 680.252 636.715 677.232 636.749 674.156L644.382 -6.49433C644.433 -10.9601 642.614 -15.2435 639.366 -18.3091L547.125 -105.376C543.684 -108.624 541.857 -113.229 542.136 -117.952L556.932 -369M916.696 1389.5H868.25M868.25 1389.5V866.016C868.25 862.138 866.841 858.392 864.286 855.474L802.083 784.458C799.045 780.989 794.658 779 790.047 779H627.129C621.997 779 617.177 776.539 614.168 772.382L556.845 693.199C554.869 690.469 553.806 687.186 553.806 683.816V352.787C553.806 349.979 553.066 347.219 551.662 344.787L454.79 177M851 1414H1364.01M851 1414L811.5 1460.5M851 1414L861 1436.5M811.5 1460.5L809.5 1960.5M811.5 1460.5L833 1470.5M809.5 1960.5L849.25 2003.45M809.5 1960.5L833 1952M849.25 2003.45H1366.25M849.25 2003.45L859.5 1981M1366.25 2003.45L1411.5 1961M1366.25 2003.45L1353.94 1981M1411.5 1961V1460.5M1411.5 1961L1388 1950.5M1411.5 1460.5L1364.01 1414M1411.5 1460.5L1388 1471.5M1364.01 1414L1353 1436.5M861 1436.5L833 1470.5M861 1436.5H1353M833 1470.5V1952M833 1952L859.5 1981M859.5 1981H1353.94M1353.94 1981L1388 1950.5M1388 1950.5V1471.5M1388 1471.5L1353 1436.5M3195.5 2634.5V2346.38C3195.5 2342.13 3193.81 2338.06 3190.81 2335.06L3013.94 2158.19C3010.94 2155.19 3006.87 2153.5 3002.62 2153.5H2598.88C2594.63 2153.5 2590.56 2151.81 2587.56 2148.81L2513.19 2074.44C2510.19 2071.44 2506.12 2069.75 2501.87 2069.75H2055.98C2051.53 2069.75 2047.28 2067.89 2044.25 2064.63L1897.25 1906.12C1894.22 1902.86 1889.97 1901 1885.52 1901H1541M4314 2224H3387.63C3383.38 2224 3379.31 2222.31 3376.31 2219.31L3097.69 1940.69C3094.69 1937.69 3090.62 1936 3086.37 1936H2231.97C2227.52 1936 2223.28 1934.15 2220.25 1930.9L2108.75 1811.1C2105.72 1807.85 2101.48 1806 2097.03 1806H1541M4455 1806H3822.13C3817.88 1806 3813.81 1807.69 3810.81 1810.69L3625.69 1995.81C3622.69 1998.81 3618.62 2000.5 3614.37 2000.5H3396.63C3392.38 2000.5 3388.31 1998.81 3385.31 1995.81L3200.19 1810.69C3197.19 1807.69 3193.12 1806 3188.87 1806H2345.13C2340.88 1806 2336.81 1804.31 2333.81 1801.31L2245.68 1713.18C2242.68 1710.18 2238.62 1708.5 2234.38 1708.5L1541 1708M1434.5 1602H1535C1538.31 1602 1541 1604.69 1541 1608M1434.5 1602V1614M1434.5 1614H1535C1538.31 1614 1541 1611.31 1541 1608M1434.5 1714H1535C1538.31 1714 1541 1711.31 1541 1708M1434.5 1714V1702M1434.5 1702H1535C1538.31 1702 1541 1704.69 1541 1708M1434.5 1812V1806V1800M1434.5 1812H1535C1538.31 1812 1541 1809.31 1541 1806M1434.5 1800H1535C1538.31 1800 1541 1802.69 1541 1806M1434.5 1895H1535C1538.31 1895 1541 1897.69 1541 1901M1434.5 1895V1900.75V1907M1434.5 1907H1535C1538.31 1907 1541 1904.31 1541 1901M1434.5 1517V1505M1434.5 1505V1471.5V1460.5M678 1504L578.975 1507.69C574.527 1507.86 570.212 1506.17 567.065 1503.02L494.5 1430.45M678 1504C678 1500.69 680.686 1498 684 1498H784.5M678 1504C678 1507.31 680.686 1510 684 1510H784.5M2795 1869.5V1875.37C2795 1884.2 2787.84 1891.37 2779 1891.37H2644.5C2635.66 1891.37 2628.5 1884.2 2628.5 1875.37V1869.5C2628.5 1860.66 2635.66 1853.5 2644.5 1853.5H2779C2787.84 1853.5 2795 1860.66 2795 1869.5Z" stroke="url(#paint0_linear_3562_244)" stroke-width="14" stroke-linecap="round" stroke-linejoin="round"/>
<path d="M1616.5 918V882.5H1534V918M1616.5 918H1635M1616.5 918V954.5M1616.5 954.5H1635M1616.5 954.5V989M1616.5 989H1635M1616.5 989V1021.5M1616.5 1021.5H1635M1616.5 1021.5V1053.75M1616.5 1053.75V1086H1534V1053.75M1616.5 1053.75H1635M1534 918H1514M1534 918V954.5M1534 954.5H1514M1534 954.5V989M1534 989H1514M1534 989V1021.5M1534 1021.5H1514M1534 1021.5V1053.75M1534 1053.75H1514M1457.5 1302.5V1385.5H1534V1302.5H1457.5ZM1583.5 1302.5V1385.5H1660V1302.5H1583.5ZM1547 896.367H1604.5V1072.37H1547V896.367Z" stroke="url(#paint1_linear_3562_244)" stroke-width="5" stroke-linecap="round" stroke-linejoin="round"/>
<circle cx="3971" cy="1596" r="28" stroke="#F9F6C4" stroke-width="12"/>
<circle cx="1240" cy="413" r="28" stroke="#F9F6C4" stroke-width="12"/>
<circle cx="824" cy="358" r="28" stroke="#F9F6C4" stroke-width="12"/>
<circle cx="737" cy="916" r="28" stroke="#F9F6C4" stroke-width="12"/>
<circle cx="2524" cy="2281" r="28" stroke="#F9F6C4" stroke-width="12"/>
<circle cx="2345" cy="2121" r="10" fill="#E4E1B6" stroke="#F9F6C4" stroke-width="12"/>
<circle cx="2424" cy="2121" r="10" fill="#E4E1B6" stroke="#F9F6C4" stroke-width="12"/>
<circle cx="3567" cy="1228" r="10" fill="#E4E1B6" stroke="#F9F6C4" stroke-width="12"/>
<circle cx="2725" cy="1237" r="10" fill="#E4E1B6" stroke="#F9F6C4" stroke-width="12"/>
<circle cx="1952" cy="275" r="10" fill="#E4E1B6" stroke="#F9F6C4" stroke-width="12"/>
<circle cx="1356" cy="397" r="10" fill="#E4E1B6" stroke="#F9F6C4" stroke-width="12"/>
<circle cx="1109" cy="160" r="10" fill="#E4E1B6" stroke="#F9F6C4" stroke-width="12"/>
<circle cx="1059" cy="6" r="10" fill="#E4E1B6" stroke="#F9F6C4" stroke-width="12"/>
<circle cx="2392.2" cy="1727.87" r="10" fill="#E4E1B6" stroke="#F9F6C4" stroke-width="12"/>
<circle cx="2584.2" cy="1870.87" r="10" fill="#E4E1B6" stroke="#F9F6C4" stroke-width="12"/>
</g>
<defs>
<linearGradient id="paint0_linear_3562_244" x1="2317.5" y1="-369" x2="2317.5" y2="2392" gradientUnits="userSpaceOnUse">
<stop stop-color="#FFF2AA"/>
<stop offset="0.696969" stop-color="#D4FFF6"/>
<stop offset="1" stop-color="#FFF4BB"/>
</linearGradient>
<linearGradient id="paint1_linear_3562_244" x1="1558.75" y1="882.5" x2="1558.75" y2="1385.5" gradientUnits="userSpaceOnUse">
<stop stop-color="#FFD700"/>
<stop offset="0.696969" stop-color="#D4FFF6"/>
<stop offset="1" stop-color="#FFF4BB"/>
</linearGradient>
<clipPath id="clip0_3562_244">
<rect width="4040" height="2634" fill="white"/>
</clipPath>
</defs>
</svg>
