<svg width="207" height="70" viewBox="0 0 207 70" fill="none" xmlns="http://www.w3.org/2000/svg">
<g clip-path="url(#clip0_3509_262)">
<path fill-rule="evenodd" clip-rule="evenodd" d="M136 14L150 14L150 46.0469L182.047 14L150 14L150 -1.25251e-05L186.313 -9.35053e-06C197.186 -8.39997e-06 206 8.8144 206 19.6875L206 50.3125C206 62.5 196.5 70 186.313 70L155.688 70C144.814 70 136 61.1856 136 50.3125L136 14ZM192 23.8438L159.844 56C196 57 194 60 192 23.8438Z" fill="#D9D9D9"/>
<path fill-rule="evenodd" clip-rule="evenodd" d="M87 70L73 69.9915V0H109C124.501 9.31323e-10 133.501 8.49905 133.501 22.7456C133.501 36.9922 125.5 45.4929 109 45.4929L143 70.0007H119L87 45.4929V70ZM87 14V31.4934H109C118.501 31.4934 119.5 25.4998 119.5 22.7456C119.5 19.9915 118.501 13.9984 109 13.9984L87 14Z" fill="#FF995C"/>
<path fill-rule="evenodd" clip-rule="evenodd" d="M24 70L10 69.9915V0H55.4988C71 9.31323e-10 80 6.49978 80 22.7456C80 38.9915 65.9984 45.4929 55.4988 45.4929H24V70ZM24 14V31.4934H55.4988C65 31.4934 65.9984 25.4998 65.9984 22.7456C65.9984 19.9915 65 13.9984 55.4988 13.9984L24 14Z" fill="#404040"/>
</g>
<defs>
<clipPath id="clip0_3509_262">
<rect width="207" height="70.0007" fill="white"/>
</clipPath>
</defs>
</svg>
