<svg width="425" height="71" viewBox="0 0 425 71" fill="none" xmlns="http://www.w3.org/2000/svg">
<g clip-path="url(#clip0_3660_245)">
<path fill-rule="evenodd" clip-rule="evenodd" d="M195.313 0.999991C206.186 0.999992 215 9.8144 215 20.6875L215 51.3125C215 63.5 205.5 71 195.313 71L164.688 71C153.814 71 145 62.1856 145 51.3125L145 21L145 20.6875C145 9.81441 153.814 0.999989 164.688 0.999988L165 0.999988L195.313 0.999991ZM200 15.9656L200 35.9828L200 56L180 56L160 56L160 36L160 16L180 15.9828L200 15.9656Z" fill="#12121A"/>
<path fill-rule="evenodd" clip-rule="evenodd" d="M89.5 70.9961L75.5 70.9876V0.996094L114 0.998688C129.501 0.998688 138.501 9.49774 138.501 23.7443C138.501 37.9909 130.5 46.4916 114 46.4916L148 70.9994H124L89.5 46.489V70.9961ZM89.5 14.9961V32.4895L114 32.4921C123.501 32.4921 124.5 26.4985 124.5 23.7443C124.5 20.9902 123.501 14.9971 114 14.9971L89.5 14.9961Z" fill="#12121A"/>
<path d="M262.5 70.9974L246.475 70.9888V14.9983L220 14.9974V1H287V14.9984L262.5 14.9974V32.4908V46.4903V70.9974Z" fill="#12121A"/>
<path fill-rule="evenodd" clip-rule="evenodd" d="M271.5 70.9974H349L308.475 1L271.5 70.9974ZM293.5 57.4378L308.475 31.5L323.45 57.4378H293.5Z" fill="#12121A"/>
<path fill-rule="evenodd" clip-rule="evenodd" d="M14 71L0 70.9915V1H45.4988C61 1 70 7.49978 70 23.7456C70 39.9915 55.9984 46.4929 45.4988 46.4929H14V71ZM14 15V32.4934H45.4988C55 32.4934 55.9984 26.4998 55.9984 23.7456C55.9984 20.9915 55 14.9984 45.4988 14.9984L14 15Z" fill="#12121A"/>
<path fill-rule="evenodd" clip-rule="evenodd" d="M369 71L355 70.9915V1H400.499C416 1 425 7.49978 425 23.7456C425 39.9915 410.998 46.4929 400.499 46.4929H369V71ZM369 15V32.4934H400.499C410 32.4934 410.998 26.4998 410.998 23.7456C410.998 20.9915 410 14.9984 400.499 14.9984L369 15Z" fill="#12121A"/>
</g>
<defs>
<clipPath id="clip0_3660_245">
<rect width="425" height="71" fill="white"/>
</clipPath>
</defs>
</svg>
